<?xml version="1.0" standalone="no"?>
<!DOCTYPE svg PUBLIC "-//W3C//DTD SVG 20010904//EN"
 "http://www.w3.org/TR/2001/REC-SVG-20010904/DTD/svg10.dtd">
<svg version="1.0" xmlns="http://www.w3.org/2000/svg"
 width="316.000000pt" height="298.000000pt" viewBox="0 0 316.000000 298.000000"
 preserveAspectRatio="xMidYMid meet">
  <g transform="translate(0.000000,298.000000) scale(0.100000,-0.100000)"
fill="#78e402" stroke="none">
    <path d="M618 2668 c-50 -13 -112 -69 -140 -126 l-23 -47 -3 -960 c-3 -950 -3
-961 17 -1016 12 -31 37 -70 58 -91 74 -72 1 -68 1115 -65 1112 2 1026 -3
1096 68 71 72 67 15 67 1099 l0 975 -22 40 c-23 43 -59 81 -108 111 -28 18
-69 19 -1025 20 -616 1 -1009 -2 -1032 -8z m856 -1074 c87 -22 123 -41 170
-88 22 -22 39 -42 38 -44 -1 -1 5 -17 15 -35 12 -23 18 -63 21 -144 4 -109 3
-114 -26 -175 -36 -73 -45 -85 -92 -120 -59 -43 -150 -68 -259 -71 -53 -2
-102 -6 -108 -10 -9 -6 -12 -56 -10 -182 0 -96 -1 -176 -4 -179 -4 -4 -149 -9
-216 -7 l-23 1 -2 530 c-2 346 0 531 7 534 6 3 104 5 219 5 157 1 223 -3 270
-15z m615 -96 c30 -62 67 -139 81 -171 31 -67 31 -67 84 48 21 44 54 114 74
155 l37 75 123 3 c99 2 123 0 128 -12 3 -8 -22 -59 -55 -115 -34 -55 -61 -102
-61 -105 0 -2 -19 -35 -42 -72 -104 -172 -129 -224 -106 -224 6 0 9 -3 5 -6
-3 -4 5 -23 18 -43 14 -19 25 -42 25 -49 0 -7 4 -11 8 -8 5 3 9 0 9 -7 0 -7
18 -43 41 -81 23 -37 42 -70 42 -72 0 -3 11 -22 25 -44 25 -39 74 -126 103
-183 9 -18 11 -32 5 -38 -5 -5 -64 -8 -133 -7 l-123 3 -91 182 c-50 101 -93
183 -96 183 -3 0 -42 -76 -85 -170 -44 -93 -85 -176 -91 -184 -9 -12 -36 -16
-132 -17 -66 0 -125 2 -131 5 -6 4 -3 19 9 39 11 18 29 52 41 77 12 25 25 47
28 50 8 6 85 141 126 220 15 30 31 57 34 60 4 3 17 21 29 41 25 41 28 81 10
101 -7 7 -14 18 -15 23 -1 6 -25 51 -54 100 -29 50 -74 129 -102 178 -27 48
-54 87 -60 87 -5 0 -8 3 -4 6 3 4 0 19 -8 35 -8 15 -15 32 -15 38 0 5 55 10
133 10 l133 1 53 -112z"/>
    <path d="M1227 1413 c-3 -5 -5 -74 -6 -155 l0 -148 72 0 c120 0 171 44 183
157 7 62 -16 100 -78 131 -45 22 -161 32 -171 15z"/>
  </g>
</svg>